<?xml version="1.0" standalone="no"?>
<!DOCTYPE svg PUBLIC "-//W3C//DTD SVG 20010904//EN"
 "http://www.w3.org/TR/2001/REC-SVG-20010904/DTD/svg10.dtd">
<svg version="1.0" xmlns="http://www.w3.org/2000/svg"
 width="7974.000000pt" height="7521.000000pt" viewBox="0 0 7974.000000 7521.000000"
 preserveAspectRatio="xMidYMid meet">

<g transform="translate(0.000000,7521.000000) scale(0.100000,-0.100000)"
fill="#000000" stroke="none">
<path d="M19170 61313 c-893 -205 -1489 -408 -1797 -612 -205 -136 -476 -419
-708 -741 -328 -454 -843 -1423 -1230 -2315 -714 -1644 -1167 -3389 -1340
-5155 -47 -489 -69 -861 -85 -1480 -6 -212 -15 -452 -20 -535 -5 -82 -12 -355
-16 -605 -28 -1951 276 -3864 912 -5741 359 -1058 859 -2181 1208 -2712 179
-272 397 -532 550 -655 325 -261 960 -523 2003 -826 l52 -15 -36 77 c-379 819
-683 1601 -943 2428 -720 2285 -1064 4705 -1037 7289 8 698 28 1183 77 1815
229 2936 924 5897 2047 8720 99 248 285 692 439 1048 17 37 18 37 -76 15z"/>
<path d="M60320 61327 c0 -3 41 -99 91 -214 993 -2269 1722 -4747 2123 -7213
413 -2536 476 -5090 186 -7460 -258 -2102 -776 -4064 -1550 -5870 -65 -151
-155 -354 -200 -450 -45 -96 -84 -180 -86 -187 -3 -6 77 13 178 42 881 256
1530 525 1841 762 214 163 508 536 736 933 268 467 655 1345 945 2147 723
2001 1077 4170 1018 6245 -7 233 -16 504 -22 603 -5 99 -14 356 -20 570 -11
430 -21 609 -51 975 -151 1837 -598 3637 -1329 5350 -333 781 -851 1784 -1163
2249 -252 378 -556 716 -790 879 -271 188 -876 404 -1632 581 -255 60 -275 64
-275 58z"/>
<path d="M35775 60749 c-3620 -19 -6661 -99 -8455 -224 -1034 -72 -1718 -167
-1909 -264 -43 -22 -157 -140 -339 -349 -913 -1052 -1605 -2306 -2087 -3782
-867 -2649 -988 -5935 -345 -9345 390 -2070 1070 -4015 1776 -5077 259 -391
526 -658 703 -704 279 -72 1136 -138 2456 -189 209 -8 439 -17 510 -20 72 -2
211 -7 310 -10 99 -3 252 -7 340 -10 435 -13 822 -24 1115 -30 653 -14 1252
-26 1830 -35 349 -5 766 -12 925 -15 160 -2 589 -7 955 -11 366 -3 726 -7 800
-9 295 -7 3758 -20 5445 -20 1760 0 5281 13 5340 20 17 1 399 6 850 9 451 4
872 8 935 11 63 3 336 7 605 10 270 3 589 7 710 10 121 3 459 10 750 15 292 6
616 12 720 15 105 3 287 7 405 10 234 6 487 13 730 20 572 18 619 19 1155 40
209 8 425 17 480 20 55 3 190 9 300 15 223 11 503 27 610 35 771 55 1049 94
1162 162 579 348 1313 1761 1857 3575 361 1202 645 2604 786 3873 12 105 23
206 25 225 7 62 24 241 35 365 6 66 13 143 15 170 18 191 50 760 60 1060 34
1056 -11 2089 -136 3065 -272 2142 -923 4008 -1925 5521 -286 433 -625 864
-967 1233 -79 85 -113 114 -156 133 -506 224 -3126 382 -7526 453 -1907 31
-7525 46 -10850 29z m-3728 -4223 c573 -74 1071 -284 1450 -610 61 -53 137
-126 168 -164 261 -311 463 -1269 600 -2842 129 -1487 183 -3636 110 -4405
-111 -1177 -654 -2122 -1453 -2528 -641 -326 -1524 -376 -2244 -128 -155 54
-297 118 -411 184 -767 453 -1250 1359 -1358 2552 -16 184 -23 1454 -10 1929
74 2674 323 4601 666 5151 46 75 214 245 321 327 381 291 889 485 1409 537 61
6 126 13 145 15 78 9 493 -4 607 -18z m16144 13 c692 -55 1323 -329 1723 -749
75 -80 94 -108 146 -213 159 -326 287 -897 395 -1760 113 -906 196 -2136 225
-3334 8 -356 5 -1671 -5 -1808 -62 -863 -307 -1562 -734 -2093 -401 -498 -928
-778 -1631 -868 -147 -18 -467 -24 -634 -11 -441 34 -886 173 -1196 374 -467
304 -818 768 -1047 1388 -105 284 -194 675 -223 980 -6 66 -13 136 -15 155
-27 226 -29 1399 -5 2135 85 2567 327 4385 654 4924 113 186 426 432 751 592
463 228 1042 332 1596 288z"/>
<path d="M22980 34699 c-280 -32 -554 -112 -805 -235 -659 -321 -1059 -904
-1170 -1704 -22 -159 -30 -548 -16 -740 44 -578 205 -1231 493 -2005 428
-1149 1062 -2267 1829 -3225 148 -185 305 -372 413 -491 45 -50 49 -52 42 -24
-13 51 -123 611 -155 785 -310 1688 -472 3223 -521 4925 -19 647 -9 1742 20
2295 6 102 13 240 17 308 l6 122 -39 -1 c-21 -1 -73 -5 -114 -10z"/>
<path d="M56444 34649 c3 -35 10 -154 16 -264 5 -110 15 -308 22 -440 17 -326
17 -1794 0 -2195 -57 -1353 -151 -2382 -327 -3577 -94 -632 -233 -1404 -359
-1988 -19 -88 -34 -161 -32 -162 3 -4 161 167 302 327 977 1106 1763 2441
2257 3830 153 432 308 977 351 1235 3 17 12 71 20 120 158 925 52 1673 -316
2229 -158 238 -387 458 -630 604 -346 208 -744 326 -1146 339 l-164 6 6 -64z"/>
<path d="M27520 16513 c12 -21 42 -73 67 -116 25 -42 53 -82 64 -87 26 -15
551 -203 849 -305 1641 -564 3395 -1020 5125 -1335 489 -89 1183 -199 1535
-245 19 -2 87 -11 150 -20 139 -19 394 -51 470 -60 30 -3 66 -8 80 -10 14 -2
54 -7 90 -10 36 -4 76 -8 90 -10 14 -2 54 -6 90 -10 36 -4 76 -8 90 -10 14 -2
54 -6 90 -10 36 -3 81 -8 100 -10 19 -2 64 -7 100 -10 63 -5 98 -9 205 -20
109 -11 519 -45 665 -55 85 -6 180 -12 210 -15 30 -2 98 -7 150 -10 52 -3 174
-10 270 -15 96 -5 222 -12 280 -15 58 -3 143 -7 190 -10 107 -6 431 -15 805
-24 320 -7 1408 -5 1605 3 69 3 222 8 340 11 118 4 233 8 255 10 22 2 126 6
230 10 105 4 197 9 205 10 8 2 83 6 165 10 83 4 157 8 165 10 8 2 76 6 150 10
74 4 142 8 150 10 8 1 67 6 130 10 63 3 126 8 140 10 14 2 63 6 110 10 47 3
105 8 130 10 25 3 101 9 170 15 69 6 141 13 160 15 19 3 85 9 145 15 107 10
529 56 610 65 210 26 473 59 630 81 2289 309 4574 848 6677 1574 189 65 350
121 358 124 14 6 44 52 130 198 l21 37 -98 -36 c-211 -78 -1194 -404 -1478
-491 -1291 -395 -2636 -724 -3948 -966 -238 -44 -604 -107 -972 -166 -194 -31
-523 -79 -645 -95 -69 -9 -136 -18 -150 -20 -31 -5 -458 -58 -690 -85 -148
-17 -262 -29 -620 -64 -25 -3 -76 -7 -115 -11 -38 -3 -88 -8 -110 -10 -22 -3
-103 -9 -180 -15 -77 -6 -156 -12 -175 -15 -19 -2 -82 -7 -140 -10 -58 -3
-116 -8 -130 -10 -14 -2 -83 -7 -155 -11 -71 -3 -137 -8 -145 -9 -8 -1 -80 -6
-160 -10 -80 -3 -165 -8 -190 -10 -25 -2 -124 -7 -220 -10 -96 -4 -198 -8
-226 -10 -386 -27 -2420 -27 -2794 0 -25 2 -130 6 -235 9 -104 4 -206 9 -225
11 -19 2 -89 7 -155 10 -66 4 -142 8 -170 10 -27 2 -97 6 -155 10 -58 3 -130
8 -160 10 -30 2 -93 7 -140 10 -194 13 -747 62 -1015 91 -77 8 -165 17 -195
20 -30 3 -86 9 -125 14 -38 5 -97 12 -130 15 -33 4 -71 8 -85 10 -14 2 -104
13 -200 24 -96 12 -204 25 -240 31 -36 5 -119 16 -185 25 -331 44 -970 142
-1260 194 -60 11 -148 27 -195 35 -1724 306 -3535 774 -5173 1337 -275 95
-712 252 -996 358 l-83 31 22 -37z"/>
<path d="M10213 15948 c-576 -616 -952 -1134 -1247 -1718 -180 -355 -270 -620
-296 -870 -48 -457 164 -859 528 -998 61 -24 80 -26 217 -27 147 0 152 1 252
36 249 88 481 270 841 662 81 88 146 165 145 171 -1 6 -25 70 -53 143 -131
343 -222 783 -261 1263 -16 200 -17 758 0 970 7 91 21 250 31 355 10 104 17
191 16 192 -2 2 -80 -79 -173 -179z"/>
<path d="M69361 16103 c-1 -12 8 -116 19 -230 95 -1012 20 -1835 -230 -2510
-29 -76 -54 -145 -57 -155 -6 -21 325 -380 472 -509 212 -187 413 -308 584
-350 113 -28 293 -23 391 10 193 66 371 244 460 458 52 124 71 215 77 363 12
304 -68 592 -288 1030 -301 599 -742 1203 -1308 1790 -95 99 -120 120 -120
103z"/>
<path d="M19835 14039 c-471 -409 -1421 -979 -2265 -1359 -63 -28 -116 -53
-118 -55 -12 -11 149 -353 318 -675 220 -420 364 -752 566 -1305 132 -362 179
-463 293 -625 60 -86 184 -207 254 -249 123 -73 169 -86 307 -86 l125 0 85 42
c203 99 409 339 565 658 135 276 182 511 164 815 -12 192 -28 268 -168 812
-76 296 -107 529 -96 738 4 69 18 235 31 370 41 421 49 583 35 754 -7 83 -15
168 -19 188 l-7 38 -70 -61z"/>
<path d="M59836 14082 c-35 -123 -32 -542 8 -922 34 -320 43 -543 27 -691 -18
-161 -41 -270 -131 -624 -113 -444 -124 -507 -124 -750 -1 -224 10 -302 69
-485 91 -279 312 -625 494 -774 145 -118 236 -156 377 -156 165 0 320 75 460
223 148 155 249 346 389 732 199 549 342 880 568 1313 163 313 317 638 317
670 0 5 -91 51 -202 102 -846 393 -1724 923 -2160 1304 -70 61 -88 72 -92 58z"/>
<path d="M30835 12794 c302 -560 665 -1079 1111 -1592 165 -189 587 -611 776
-776 577 -502 1149 -885 1853 -1241 1125 -568 2374 -926 3725 -1069 527 -56
645 -61 1490 -61 845 0 965 5 1490 61 2191 233 4119 1033 5590 2320 169 148
569 547 722 719 429 485 790 992 1099 1544 54 96 97 176 96 177 -1 1 -121 -38
-267 -87 -302 -101 -544 -171 -886 -258 -2462 -620 -6288 -897 -10039 -726
-2701 124 -5044 477 -6550 989 -121 41 -229 78 -239 82 -15 6 -8 -13 29 -82z"/>
<path d="M68811 12704 c-288 -412 -670 -681 -1220 -858 -143 -46 -392 -106
-523 -127 -43 -6 -78 -15 -78 -20 0 -11 180 -397 312 -669 121 -249 325 -642
466 -900 240 -438 433 -663 665 -774 240 -115 501 -87 722 76 229 169 367 428
406 759 15 134 6 401 -20 574 -87 581 -294 1216 -608 1873 l-68 144 -54 -78z"/>
<path d="M10846 12713 c-311 -631 -538 -1303 -630 -1868 -65 -402 -57 -676 30
-934 74 -222 211 -399 398 -516 313 -195 660 -130 953 178 186 196 356 484
746 1262 148 297 417 858 417 871 0 2 -9 4 -20 4 -47 0 -345 65 -490 106 -568
163 -968 423 -1271 827 -50 67 -95 123 -98 125 -4 1 -20 -24 -35 -55z"/>
<path d="M15295 11889 c-67 -20 -421 -92 -609 -124 -223 -39 -543 -78 -771
-95 -169 -13 -650 -16 -766 -5 l-77 7 -11 -53 c-50 -232 -102 -625 -122 -929
-13 -193 -6 -643 11 -775 64 -488 238 -807 539 -989 124 -74 233 -108 368
-114 181 -7 310 33 450 141 157 121 292 331 407 634 92 245 307 989 450 1559
61 244 176 734 176 750 0 5 -10 4 -45 -7z"/>
<path d="M64406 11883 c2 -10 31 -137 65 -283 174 -765 448 -1737 584 -2076
165 -410 366 -629 645 -700 49 -12 93 -15 180 -12 137 6 233 34 355 103 303
172 480 478 552 952 26 171 26 825 0 1063 -31 278 -100 715 -116 732 -3 3 -94
3 -201 -2 -445 -19 -992 26 -1531 125 -162 30 -473 96 -521 111 -12 3 -15 0
-12 -13z"/>
</g>
</svg>
