<?xml version="1.0" standalone="no"?>
<!DOCTYPE svg PUBLIC "-//W3C//DTD SVG 20010904//EN"
 "http://www.w3.org/TR/2001/REC-SVG-20010904/DTD/svg10.dtd">
<svg version="1.0" xmlns="http://www.w3.org/2000/svg"
 width="319.000000pt" height="427.000000pt" viewBox="0 0 319.000000 427.000000"
 preserveAspectRatio="xMidYMid meet">

<g transform="translate(0.000000,427.000000) scale(0.100000,-0.100000)"
fill="#000000" stroke="none">
<path d="M1468 3713 c7 -3 16 -2 19 1 4 3 -2 6 -13 5 -11 0 -14 -3 -6 -6z"/>
<path d="M1451 3648 c1 -27 -1 -51 -4 -55 -4 -3 -7 17 -7 45 0 47 -2 52 -22
52 -27 0 -43 -10 -51 -30 -4 -11 -6 -11 -6 4 -1 12 -6 16 -17 12 -9 -3 -27 -9
-40 -12 -15 -4 -24 -14 -25 -28 -1 -16 -2 -17 -6 -3 -2 9 -8 17 -13 17 -21 0
-80 -35 -80 -47 0 -8 -6 -13 -12 -11 -19 4 -78 -23 -79 -36 -1 -6 -1 -16 0
-23 2 -15 -16 -26 -30 -17 -8 4 -7 9 2 15 8 5 10 9 4 9 -5 0 -21 -9 -35 -20
-20 -16 -21 -19 -5 -13 14 4 10 -3 -14 -25 -18 -18 -36 -32 -39 -32 -9 0 -72
-72 -72 -83 0 -6 -3 -7 -6 -4 -4 4 -21 -13 -39 -36 -19 -23 -47 -55 -64 -70
-17 -16 -31 -37 -31 -47 0 -11 -8 -25 -19 -32 -10 -7 -22 -24 -26 -38 -4 -14
-13 -32 -21 -40 -13 -15 -44 -83 -44 -95 0 -4 5 -3 10 0 6 3 10 1 10 -4 0 -6
-4 -11 -10 -11 -14 0 -29 -34 -36 -82 -11 -85 -13 -148 -5 -152 12 -8 41 60
48 110 3 24 9 44 13 44 4 0 10 14 14 32 3 17 8 29 10 27 8 -9 17 -81 9 -76 -5
3 -4 -43 1 -101 5 -59 9 -129 8 -157 0 -55 0 -226 1 -291 0 -23 -5 -79 -12
-125 -15 -92 -7 -198 26 -359 10 -49 17 -135 18 -201 1 -76 5 -122 13 -132 7
-8 10 -21 7 -29 -4 -9 1 -22 9 -31 9 -9 16 -24 16 -35 0 -11 7 -25 15 -32 8
-7 15 -16 15 -21 0 -4 5 -20 12 -36 6 -15 13 -36 15 -46 14 -72 76 -217 93
-217 6 0 10 -8 10 -17 0 -10 18 -28 41 -41 22 -13 58 -39 79 -58 20 -19 41
-34 46 -34 5 0 27 -17 49 -38 90 -83 196 -152 234 -152 6 0 11 -5 11 -10 0 -6
3 -9 8 -8 4 1 21 -5 37 -12 17 -7 76 -13 138 -14 91 -1 111 2 121 16 11 15 13
15 24 0 11 -16 11 -16 6 1 -5 12 -1 17 15 17 12 0 21 5 21 11 0 5 5 7 10 4 6
-4 37 6 70 21 60 28 64 32 84 109 3 11 4 1 2 -23 -4 -36 -2 -41 10 -31 8 6 14
20 14 30 0 24 17 25 23 2 3 -11 5 -8 6 9 1 21 -3 26 -14 22 -10 -4 -13 -2 -10
8 5 12 27 15 73 10 7 -1 10 -6 7 -12 -3 -6 1 -7 10 -3 13 4 14 8 4 14 -11 6
-8 13 9 32 24 25 28 37 12 37 -6 0 -15 -10 -21 -22 -8 -19 -19 -23 -56 -24
-26 -1 -49 -7 -54 -15 -6 -10 -9 -8 -9 8 0 17 4 21 16 16 11 -4 22 1 30 12 8
10 14 14 14 8 0 -6 11 -10 23 -10 20 0 31 13 60 73 41 82 43 88 25 79 -7 -4
-2 2 11 13 15 12 22 26 18 35 -4 12 4 16 40 19 24 2 47 0 49 -4 6 -9 -8 -11
-43 -8 -13 1 -26 -7 -33 -19 -10 -20 -8 -21 40 -21 48 0 50 1 65 36 8 20 21
61 29 91 13 49 13 54 -2 51 -23 -4 -45 -50 -29 -60 9 -6 9 -8 -1 -8 -7 0 -17
-10 -23 -22 -9 -21 -9 -21 -4 5 3 15 8 39 11 54 6 23 5 25 -12 19 -10 -5 -32
-9 -49 -10 -25 -1 -31 -7 -47 -50 -9 -27 -16 -52 -14 -55 2 -3 -2 -12 -10 -19
-9 -8 -14 -9 -14 -2 0 6 -6 8 -12 5 -7 -4 -5 0 4 8 14 11 48 85 48 103 0 2
-11 4 -24 4 -15 0 -26 -7 -29 -18 -4 -16 -5 -16 -6 0 -1 14 -9 18 -41 16 -22
-1 -43 2 -47 5 -3 4 17 7 45 7 40 0 52 4 55 18 4 16 5 16 6 0 1 -12 9 -18 26
-18 19 0 25 5 26 23 1 16 2 18 6 5 5 -21 49 -25 56 -5 4 8 6 8 6 0 1 -6 10 -9
21 -6 21 5 37 44 26 62 -3 5 -1 11 6 13 6 2 20 26 30 54 10 27 16 36 12 19 -3
-16 -6 -41 -7 -55 -1 -14 -7 -29 -13 -35 -7 -5 -15 -20 -18 -32 -6 -18 -4 -20
14 -16 12 3 23 17 26 32 3 14 10 38 16 53 5 15 8 30 5 35 -3 4 1 13 8 20 10 9
15 9 17 1 7 -21 28 2 28 30 -1 26 -1 26 -15 8 -13 -17 -15 -18 -15 -3 0 18
-15 23 -25 7 -3 -5 -15 0 -27 12 l-22 22 -12 -35 c-17 -46 -17 -49 4 -50 15 0
15 -1 -2 -8 -11 -4 -23 -16 -28 -27 -6 -14 -7 -12 -3 9 3 17 1 27 -7 27 -7 0
-5 5 4 13 13 10 68 186 68 218 0 5 -13 9 -30 9 -17 0 -30 -5 -30 -12 0 -10 -2
-10 -9 0 -5 9 -29 12 -83 10 -71 -4 -75 -3 -70 16 3 11 7 15 10 8 5 -16 72
-16 72 1 0 9 2 9 9 -1 4 -8 20 -12 36 -10 25 3 30 11 52 76 14 41 23 76 20 78
-2 3 -41 2 -86 -2 -79 -7 -81 -8 -82 -33 -1 -35 -8 -74 -15 -80 -3 -3 -3 20 1
51 7 54 6 57 -16 61 -22 4 -22 4 4 6 25 1 27 4 27 44 l0 42 48 -5 47 -5 -42
-3 c-42 -3 -43 -4 -43 -39 l0 -36 53 7 c28 3 66 6 83 6 23 0 33 6 42 28 l12
27 -5 -27 c-5 -25 -3 -28 24 -28 16 0 33 5 36 10 4 6 12 7 18 3 35 -22 45 -13
61 55 24 105 24 117 -1 120 -14 2 -23 -3 -26 -15 -4 -16 -5 -17 -6 0 -1 13
-10 17 -35 17 -24 0 -36 -5 -39 -17 -4 -17 -5 -17 -6 0 -1 16 -11 17 -83 15
-118 -3 -118 -2 -118 -56 0 -25 -3 -43 -6 -39 -4 3 -6 25 -6 48 l1 41 -55 -4
c-30 -3 -54 -1 -54 4 0 4 25 8 55 8 42 0 55 3 55 15 0 9 -10 15 -27 16 -21 1
-23 3 -8 6 45 10 51 16 25 23 -25 8 -25 8 4 9 23 1 27 4 18 13 -7 7 -12 17
-12 23 0 5 5 3 10 -5 5 -8 10 -10 10 -4 0 6 -7 17 -15 24 -10 9 -15 9 -15 1 0
-6 -13 -11 -30 -11 -16 0 -30 -4 -30 -8 0 -5 -7 -17 -15 -28 -14 -18 -15 -17
-9 10 7 29 7 29 -30 23 -22 -3 -34 -2 -31 4 4 5 2 9 -4 9 -14 0 -23 -34 -21
-88 3 -71 1 -96 -6 -89 -8 8 -7 164 0 176 3 4 -5 7 -17 6 -17 -1 -23 -10 -28
-36 -4 -19 -7 -27 -9 -19 -3 21 -3 22 5 55 l7 30 -22 -25 c-20 -23 -22 -23
-31 -7 -6 9 -16 17 -24 17 -8 0 -17 4 -20 10 -3 6 1 7 9 4 9 -3 16 -3 16 0 0
4 -11 11 -25 16 -14 5 -25 15 -25 22 0 9 3 9 12 0 7 -7 19 -12 27 -12 11 0 10
4 -5 15 -18 13 -18 14 -1 15 17 0 17 1 3 16 -16 16 -21 34 -10 34 4 0 12 -7
18 -15 10 -14 14 -13 36 2 14 10 32 18 40 18 12 0 14 11 13 48 -3 40 -1 46 11
35 7 -7 11 -20 8 -30 -5 -21 -1 -22 33 -6 29 13 32 25 8 31 -10 3 8 5 41 6 53
1 58 3 53 21 -3 11 -2 20 1 20 32 -2 151 -20 166 -26 17 -6 18 -4 13 22 -6 29
-6 29 5 4 15 -31 27 -40 54 -40 l21 0 -25 85 c-23 77 -28 85 -51 86 -25 2 -25
2 -2 6 24 5 24 2 3 86 -6 21 -6 37 -1 37 5 0 9 -11 9 -24 0 -28 9 -32 99 -41
48 -6 65 -4 72 6 7 11 9 10 9 -3 0 -10 8 -18 18 -19 9 0 30 -2 47 -4 16 -2 33
1 37 8 5 8 8 6 8 -5 0 -10 4 -18 9 -18 5 0 12 8 14 18 4 16 5 16 6 0 1 -19 20
-25 22 -8 3 20 4 25 11 36 8 12 3 152 -7 219 -3 22 -17 85 -31 139 -18 73 -21
102 -13 112 8 10 7 18 -5 29 -9 9 -19 28 -23 43 -3 15 -14 38 -24 51 -16 20
-20 21 -25 7 -7 -17 20 -66 36 -66 6 0 10 -10 9 -22 0 -22 -1 -22 -12 -4 -32
49 -50 67 -59 58 -10 -10 19 -72 32 -72 4 0 7 -6 7 -12 0 -7 4 -22 8 -33 4
-11 -5 0 -20 25 -35 60 -45 71 -57 64 -5 -3 -1 -17 8 -32 25 -38 60 -112 68
-144 6 -26 26 -40 26 -18 0 6 3 10 8 10 4 0 8 -17 8 -38 1 -20 -1 -27 -3 -14
-2 12 -9 22 -14 22 -5 0 -9 -10 -9 -22 0 -18 -2 -20 -10 -8 -17 27 -21 2 -9
-59 12 -61 28 -81 30 -38 1 16 2 18 6 5 5 -19 23 -25 23 -8 0 5 7 7 16 3 14
-5 12 -8 -7 -19 -13 -7 -31 -13 -40 -14 -12 0 -15 -8 -13 -27 4 -27 3 -28 -4
-3 -6 17 -14 24 -28 22 -10 -2 -20 -5 -21 -6 -1 -1 7 -31 18 -66 11 -35 18
-74 16 -85 -1 -11 -9 5 -15 36 -10 44 -17 56 -30 54 -9 -1 -11 0 -4 2 13 5 16
22 7 45 -9 22 -65 11 -59 -11 5 -13 4 -13 -6 2 -12 19 -70 24 -70 6 0 -6 5
-19 10 -30 7 -11 7 -19 1 -19 -5 0 -12 14 -16 30 -6 26 -11 30 -41 30 -27 0
-34 -4 -34 -20 0 -11 4 -20 9 -20 5 0 7 -9 4 -20 -5 -17 -7 -18 -17 -6 -6 7
-18 16 -26 19 -12 4 -11 6 3 6 10 1 17 9 17 21 0 16 -7 20 -30 20 -16 0 -30 4
-30 9 0 4 11 6 25 3 20 -3 25 0 25 16 0 11 -8 23 -17 25 -10 3 2 5 27 4 25 0
35 -2 23 -4 -15 -3 -23 -12 -23 -24 0 -15 7 -19 35 -19 33 0 46 16 28 34 -4 4
-8 17 -8 29 -5 91 -3 87 -34 87 -28 0 -30 -3 -34 -42 l-4 -43 -1 43 c-2 40 -3
42 -33 42 l-31 0 4 -79 4 -78 -43 5 c-32 3 -43 1 -43 -9 0 -10 -2 -11 -8 -2
-4 6 -23 13 -42 16 l-35 4 36 1 36 2 1 70 1 70 -94 0 c-52 0 -95 3 -95 8 0 4
43 5 95 4 l95 -4 0 35 c0 31 -3 36 -27 40 l-28 4 28 2 c18 1 27 7 27 18 0 9 3
13 7 10 3 -4 5 -29 4 -56 l-1 -50 99 0 c55 0 102 3 105 7 3 5 2 18 -1 30 -4
16 -13 22 -33 22 -16 0 -31 -6 -33 -12 -4 -10 -6 -10 -6 0 -1 8 -19 12 -53 13
-37 0 -47 3 -33 8 11 5 35 6 53 3 30 -4 32 -3 32 26 0 21 -5 32 -17 34 -16 3
-15 5 2 9 11 3 29 2 40 -2 17 -6 17 -8 3 -8 -13 -1 -18 -9 -18 -32 0 -27 3
-30 28 -27 28 3 29 5 18 51 -5 20 -3 28 5 25 7 -2 13 -17 15 -34 3 -48 12
-105 16 -109 1 -2 15 -1 29 2 19 3 25 10 24 26 -1 13 0 15 2 5 5 -19 20 -22
47 -12 8 3 12 13 9 22 -3 13 -2 14 4 4 10 -14 43 -6 43 10 0 5 -7 23 -16 39
-8 17 -13 33 -11 36 3 3 14 -15 25 -39 15 -34 21 -39 27 -26 8 20 -45 126 -60
118 -5 -3 -9 -8 -8 -12 6 -16 -4 -7 -27 25 -19 26 -20 29 -3 15 11 -10 23 -18
26 -18 18 0 2 29 -40 74 -27 28 -37 42 -24 31 14 -11 37 -33 52 -50 15 -16 31
-27 35 -23 4 5 0 16 -9 26 -10 10 -17 22 -17 26 0 5 9 -2 19 -15 16 -19 22
-21 32 -12 10 10 9 17 -7 35 l-19 23 21 -18 c20 -17 34 -14 34 7 0 16 -56 77
-64 69 -3 -3 -6 0 -6 8 0 8 -14 32 -31 54 -24 32 -21 29 16 -10 26 -27 54 -60
62 -73 9 -12 18 -21 20 -18 6 6 -25 55 -56 89 -31 33 -102 88 -82 64 9 -11 10
-17 2 -17 -17 0 -13 -31 6 -54 10 -12 11 -15 3 -8 -20 17 -28 15 -35 -9 -5
-16 0 -28 21 -46 l29 -25 -34 23 -34 22 5 -26 c3 -14 1 -24 -3 -21 -19 12 -7
-29 14 -47 l22 -20 -28 17 c-27 16 -27 16 -33 -14 -5 -24 -9 -28 -19 -19 -9 9
-9 14 0 24 7 7 18 35 25 64 12 51 12 51 -16 75 -16 13 -35 21 -41 19 -16 -5
-17 24 -2 45 9 13 10 12 5 -2 -3 -12 7 -27 34 -48 39 -31 39 -31 50 -9 11 19
8 25 -24 51 -19 16 -37 28 -38 27 -2 -1 -21 15 -42 35 -47 42 -53 44 -59 14
-4 -19 -5 -18 -6 5 -1 24 -9 32 -51 50 -27 11 -50 25 -50 29 0 5 23 -3 50 -17
l50 -25 0 28 c0 23 -6 30 -37 42 -21 8 -41 16 -45 18 -3 2 -8 -5 -11 -15 -4
-15 -5 -14 -6 4 -1 14 -11 25 -32 32 -47 16 -59 14 -59 -13 0 -17 8 -28 28
-35 l27 -11 -28 5 c-27 6 -28 4 -25 -32 3 -37 4 -38 53 -48 28 -6 64 -18 80
-28 17 -10 21 -15 10 -11 -142 48 -145 48 -144 -27 1 -33 -2 -63 -5 -66 -3 -4
-6 26 -6 65 l0 70 -65 7 c-36 4 -74 5 -84 2 -10 -2 -25 -1 -32 4 -10 6 -10 9
-2 9 9 0 12 24 12 83 0 81 -1 83 -25 85 -24 2 -25 -1 -22 -40 l3 -42 -58 3
-57 2 0 -40 c0 -40 1 -41 33 -41 17 0 39 -5 47 -11 11 -8 2 -9 -32 -4 l-48 6
1 -66 c1 -36 -2 -69 -5 -72 -3 -4 -6 26 -6 65 0 47 -4 72 -12 75 -10 4 -10 6
0 6 7 1 12 16 12 42 0 38 -2 40 -27 39 -69 -5 -93 0 -86 16 3 9 9 11 12 6 3
-5 27 -10 54 -10 l47 -1 0 34 c0 28 -4 35 -19 35 -11 0 -22 -8 -24 -17 -4 -16
-5 -16 -6 -1 -1 13 -11 16 -56 15 l-55 -1 1 -48z m-74 -40 c-3 -8 -6 -5 -6 6
-1 11 2 17 5 13 3 -3 4 -12 1 -19z m73 -78 c0 -5 -5 -10 -11 -10 -5 0 -7 5 -4
10 3 6 8 10 11 10 2 0 4 -4 4 -10z m130 -1 c0 -5 -4 -7 -10 -4 -5 3 -10 1 -10
-5 0 -6 -5 -8 -10 -5 -6 4 -8 11 -5 16 8 12 35 11 35 -2z m165 1 c3 -5 -1 -10
-9 -10 -9 0 -16 5 -16 10 0 6 4 10 9 10 6 0 13 -4 16 -10z m-328 -6 c-3 -3
-12 -4 -19 -1 -8 3 -5 6 6 6 11 1 17 -2 13 -5z m260 -36 c-3 -8 -6 -5 -6 6 -1
11 2 17 5 13 3 -3 4 -12 1 -19z m-120 -20 c-3 -7 -5 -2 -5 12 0 14 2 19 5 13
2 -7 2 -19 0 -25z m186 -62 c3 -42 1 -63 -4 -55 -5 8 -9 31 -9 52 0 28 -4 37
-17 38 -17 1 -17 2 0 6 9 2 17 14 18 26 1 38 7 5 12 -67z m-59 33 c-3 -5 -10
-7 -15 -3 -5 3 -7 10 -3 15 3 5 10 7 15 3 5 -3 7 -10 3 -15z m116 -24 c0 -43
1 -45 30 -45 22 0 30 5 31 18 0 13 2 12 9 -5 8 -19 17 -23 55 -23 42 0 45 -2
45 -26 0 -14 5 -35 11 -46 8 -14 8 -23 0 -31 -6 -6 -11 -7 -12 -1 -2 26 -8 68
-13 79 -3 9 -39 16 -103 21 -54 4 -90 10 -79 12 15 3 18 11 13 48 -2 24 -1 44
4 44 5 0 9 -20 9 -45z m352 30 c0 -6 -3 -34 -6 -64 -5 -39 -3 -57 6 -63 10 -6
10 -8 1 -8 -9 0 -11 -18 -6 -67 3 -38 6 -69 7 -69 1 -1 11 -5 24 -8 20 -7 22
-4 22 35 0 23 3 39 7 35 4 -4 6 -22 5 -41 -3 -26 1 -35 18 -40 12 -4 27 -1 36
6 12 10 15 10 12 -2 -2 -8 5 -14 17 -14 12 0 20 6 19 15 -1 9 7 16 17 16 10 0
15 -4 12 -9 -2 -4 1 -16 8 -25 11 -14 11 -15 -1 -4 -28 25 -41 2 -21 -36 6 -9
12 -29 15 -44 5 -20 11 -26 24 -22 14 5 15 4 2 -5 -8 -6 -26 -10 -40 -10 -18
1 -20 3 -7 6 13 3 16 10 11 26 -19 65 -32 76 -109 91 -11 2 -33 7 -49 11 l-29
8 7 -42 c7 -43 4 -45 -29 -31 -17 7 -17 9 -2 9 13 1 17 10 17 36 0 26 -4 35
-17 36 -70 5 -127 19 -75 19 14 0 22 6 23 18 0 13 2 14 6 2 8 -19 23 -30 45
-30 16 0 17 10 12 98 -5 72 -11 100 -23 111 -14 11 -13 12 8 6 22 -7 23 -5 19
29 -2 20 0 35 5 33 5 -1 9 -7 9 -12z m-229 -12 c-7 -2 -19 -2 -25 0 -7 3 -2 5
12 5 14 0 19 -2 13 -5z m148 -31 c-6 -2 -11 -16 -11 -31 0 -23 6 -30 33 -39
l32 -11 -40 4 c-22 3 -56 9 -75 15 l-35 10 38 -5 c36 -4 37 -3 37 31 0 25 -4
34 -17 35 -15 0 -15 2 2 8 12 5 26 4 34 -2 9 -8 10 -12 2 -15z m-511 -32 c0
-5 -5 -10 -11 -10 -5 0 -7 5 -4 10 3 6 8 10 11 10 2 0 4 -4 4 -10z m61 -38
c-4 -54 -11 -53 -11 3 0 27 3 45 7 41 4 -4 6 -24 4 -44z m69 38 c0 -5 -4 -10
-10 -10 -5 0 -10 5 -10 10 0 6 5 10 10 10 6 0 10 -4 10 -10z m560 -47 c0 -1
-7 0 -15 3 -11 5 -15 -1 -15 -21 0 -14 -4 -24 -8 -21 -4 3 -6 20 -4 39 4 33 5
34 23 19 10 -9 19 -18 19 -19z m179 -35 c17 -27 8 -22 -30 19 -27 29 -28 32
-7 17 14 -10 31 -27 37 -36z m-701 13 c18 2 32 0 32 -4 0 -4 -2 -7 -5 -7 -3 0
-23 0 -45 0 -32 0 -38 3 -33 16 4 11 8 12 13 4 4 -7 21 -10 38 -9z m99 -17
c-9 -9 -28 6 -21 18 4 6 10 6 17 -1 6 -6 8 -13 4 -17z m77 -4 c-21 -8 -37 -3
-29 10 3 4 15 6 27 2 21 -5 21 -6 2 -12z m189 -23 c20 -4 19 -4 -3 -5 -14 0
-34 3 -45 8 -17 7 -17 9 -2 9 9 1 18 9 18 19 1 12 3 10 6 -5 2 -13 13 -24 26
-26z m304 8 c0 -8 -4 -15 -9 -15 -10 0 -11 14 -1 23 9 10 10 9 10 -8z m-625
-30 c3 -14 1 -25 -3 -25 -5 0 -9 11 -9 25 0 14 2 25 4 25 2 0 6 -11 8 -25z
m236 -36 c14 0 14 -2 2 -6 -8 -3 -18 -11 -22 -17 -4 -6 -7 7 -6 29 0 23 3 30
5 18 2 -13 12 -23 21 -24z m-164 10 c-3 -5 -10 -7 -15 -3 -5 3 -7 10 -3 15 3
5 10 7 15 3 5 -3 7 -10 3 -15z m106 -5 c0 -2 -13 -4 -30 -4 -16 0 -30 4 -30 8
0 5 14 7 30 4 17 -2 30 -6 30 -8z m415 -4 c3 -5 1 -10 -4 -10 -6 0 -11 5 -11
10 0 6 2 10 4 10 3 0 8 -4 11 -10z m-528 -32 c-3 -8 -6 -5 -6 6 -1 11 2 17 5
13 3 -3 4 -12 1 -19z m-60 -10 c-3 -8 -6 -5 -6 6 -1 11 2 17 5 13 3 -3 4 -12
1 -19z m3 -28 c0 -5 -4 -10 -10 -10 -5 0 -10 5 -10 10 0 6 5 10 10 10 6 0 10
-4 10 -10z m126 -9 c-3 -4 -23 -5 -45 -3 -23 2 -39 7 -37 11 3 4 23 5 45 3 23
-2 39 -7 37 -11z m85 -24 c-8 -8 -11 -8 -11 1 0 7 -8 13 -17 13 -17 1 -17 2 0
6 9 2 17 10 17 16 0 7 5 4 11 -6 8 -14 8 -22 0 -30z m93 2 c-2 -4 -14 -4 -27
-1 -18 5 -19 7 -4 10 9 2 17 9 17 15 0 7 4 6 9 -3 6 -8 8 -17 5 -21z m296 11
c0 -5 -4 -10 -10 -10 -5 0 -10 5 -10 10 0 6 5 10 10 10 6 0 10 -4 10 -10z
m-389 -115 l-5 -30 -6 30 c-3 17 -3 44 -1 60 l5 30 6 -30 c3 -16 3 -43 1 -60z
m-76 43 c6 -4 -3 -8 -18 -8 -23 0 -26 2 -15 14 7 8 15 11 18 8 3 -4 10 -10 15
-14z m495 0 c0 -19 -2 -20 -10 -8 -13 19 -13 30 0 30 6 0 10 -10 10 -22z
m-1733 -10 c-3 -8 -6 -5 -6 6 -1 11 2 17 5 13 3 -3 4 -12 1 -19z m1090 0 c-3
-8 -6 -5 -6 6 -1 11 2 17 5 13 3 -3 4 -12 1 -19z m68 12 c3 -5 1 -10 -4 -10
-6 0 -11 5 -11 10 0 6 2 10 4 10 3 0 8 -4 11 -10z m-66 -87 c-1 -37 -3 -42 -8
-23 -7 24 -3 70 5 70 2 0 4 -21 3 -47z m66 -3 c-3 -5 -12 -7 -20 -3 -21 7 -19
13 6 13 11 0 18 -4 14 -10z m708 -77 c-8 -21 -22 -5 -16 18 4 15 8 17 13 8 5
-7 6 -18 3 -26z m30 17 c-3 -11 -7 -20 -9 -20 -2 0 -4 9 -4 20 0 11 4 20 9 20
5 0 7 -9 4 -20z m-678 -10 c3 -5 1 -10 -4 -10 -6 0 -11 5 -11 10 0 6 2 10 4
10 3 0 8 -4 11 -10z m95 1 c0 -6 -4 -13 -10 -16 -5 -3 -10 1 -10 9 0 9 5 16
10 16 6 0 10 -4 10 -9z m-80 -57 c0 -2 -12 -4 -27 -4 -21 0 -24 3 -14 9 13 8
41 5 41 -5z m81 2 c-6 -7 -9 -20 -5 -29 4 -12 -5 -16 -50 -19 -31 -1 -56 0
-56 5 0 4 20 7 45 7 41 0 45 2 45 25 0 16 6 25 16 25 13 0 14 -3 5 -14z m566
-68 c-3 -7 -5 -2 -5 12 0 14 2 19 5 13 2 -7 2 -19 0 -25z m-699 15 c-10 -2
-26 -2 -35 0 -10 3 -2 5 17 5 19 0 27 -2 18 -5z m746 -26 c7 -4 3 -9 -11 -13
-14 -4 -23 -15 -24 -28 -1 -17 -2 -17 -6 -3 -5 18 -23 24 -23 7 0 -6 -6 -5
-14 2 -15 14 -11 29 7 27 34 -4 47 2 48 24 0 15 2 17 6 7 3 -8 11 -18 17 -23z
m-433 -24 c-10 -17 -10 -17 -11 -1 0 15 -10 17 -71 17 -39 -1 -73 2 -76 5 -7
6 36 9 105 6 29 -1 42 3 42 12 0 8 4 7 11 -4 7 -12 7 -24 0 -35z m-181 17 c0
-5 -4 -10 -10 -10 -5 0 -10 5 -10 10 0 6 5 10 10 10 6 0 10 -4 10 -10z m-90
-10 c0 -5 -4 -10 -10 -10 -5 0 -10 5 -10 10 0 6 5 10 10 10 6 0 10 -4 10 -10z
m527 -20 c3 -19 2 -19 -15 -2 -11 11 -14 20 -8 24 13 9 19 3 23 -22z m-334
-22 c-9 -15 -23 -8 -23 12 0 17 2 19 14 8 8 -7 12 -16 9 -20z m504 10 c-3 -8
-6 -5 -6 6 -1 11 2 17 5 13 3 -3 4 -12 1 -19z m-238 -38 c1 -13 0 -13 -9 0 -5
8 -9 24 -9 35 l0 20 9 -20 c5 -11 9 -27 9 -35z m-365 19 c-3 -5 -10 -7 -15 -3
-5 3 -7 10 -3 15 3 5 10 7 15 3 5 -3 7 -10 3 -15z m245 5 c2 -2 -10 -4 -27 -4
-19 0 -32 -5 -32 -12 0 -13 -20 10 -20 24 0 6 70 -1 79 -8z m-339 -4 c0 -5 -5
-10 -11 -10 -5 0 -7 5 -4 10 3 6 8 10 11 10 2 0 4 -4 4 -10z m423 -7 c-7 -2
-21 -2 -30 0 -10 3 -4 5 12 5 17 0 24 -2 18 -5z m145 -4 c10 -1 6 -4 -8 -8
-29 -9 -52 -3 -44 11 3 5 13 7 21 4 8 -3 22 -6 31 -7z m100 -4 c14 19 42 14
42 -9 0 -17 -2 -18 -10 -6 -6 9 -13 11 -17 5 -15 -19 -43 -14 -43 9 0 17 2 18
10 6 6 -9 13 -11 18 -5z m-478 -28 c0 -10 -10 -12 -32 -8 l-33 5 30 7 c17 4
31 7 33 8 1 0 2 -5 2 -12z m159 -3 c2 -2 -10 -4 -27 -4 -19 0 -32 -5 -33 -12
0 -10 -2 -10 -6 0 -2 6 -23 13 -46 13 l-42 2 40 6 c37 7 104 3 114 -5z m-349
-4 c0 -5 -8 -10 -17 -10 -15 0 -16 2 -3 10 19 12 20 12 20 0z m104 -30 c6 -9
2 -8 -10 3 -21 17 -22 17 -47 -13 -14 -16 -29 -30 -33 -30 -4 0 5 13 20 29 15
16 24 31 19 33 -4 3 -3 3 4 2 7 -2 16 2 20 8 5 9 8 8 11 -2 3 -8 10 -22 16
-30z m-177 24 c-3 -3 -12 -4 -19 -1 -8 3 -5 6 6 6 11 1 17 -2 13 -5z m323 -44
c25 0 40 5 41 13 0 10 2 10 6 0 2 -7 12 -13 20 -13 9 0 13 -3 10 -7 -4 -4 -30
-6 -57 -4 -28 1 -50 0 -50 -3 0 -3 8 -21 17 -41 13 -28 23 -35 47 -36 30 -2
30 -2 4 -6 -20 -3 -26 -9 -22 -21 3 -9 -10 12 -28 46 l-33 64 -59 -5 c-36 -3
-53 -2 -45 4 8 5 33 9 56 9 36 0 42 3 37 18 -5 16 -5 16 6 0 7 -12 24 -18 50
-18z m-320 -6 c0 -2 -7 -4 -15 -4 -8 0 -15 4 -15 10 0 5 7 7 15 4 8 -4 15 -8
15 -10z m32 -16 c-7 -7 -12 -8 -12 -2 0 14 12 26 19 19 2 -3 -1 -11 -7 -17z
m113 -34 c8 -20 15 -49 15 -65 0 -27 3 -29 37 -29 20 0 34 -2 31 -5 -2 -3 -43
-5 -91 -6 -48 -1 -87 -5 -87 -10 0 -5 -5 -9 -11 -9 -5 0 -7 5 -4 10 3 6 1 10
-6 10 -7 0 -9 3 -5 7 3 4 33 6 66 5 57 -1 60 0 60 22 0 13 -5 37 -11 55 -10
27 -13 30 -27 19 -14 -12 -14 -11 -1 10 8 12 15 22 16 22 2 0 10 -16 18 -36z
m-165 2 c0 -3 -4 -8 -10 -11 -5 -3 -10 -1 -10 4 0 6 5 11 10 11 6 0 10 -2 10
-4z m21 -39 c-10 -9 -11 -8 -5 6 3 10 9 15 12 12 3 -3 0 -11 -7 -18z m97 2
c10 -16 11 -24 2 -33 -8 -8 -10 -7 -5 6 5 12 1 20 -9 24 -9 3 -16 10 -16 15 0
16 15 10 28 -12z m142 -5 c0 -12 -2 -12 -14 -2 -8 7 -12 16 -9 21 7 11 23 -2
23 -19z m198 -5 l27 -1 -25 -7 c-30 -9 -40 -5 -39 17 0 11 3 12 6 5 2 -7 17
-13 31 -14z m-468 7 c0 -2 -8 -10 -17 -17 -16 -13 -17 -12 -4 4 13 16 21 21
21 13z m40 -56 c0 -5 -7 -10 -15 -10 -9 0 -27 -11 -41 -25 -30 -30 -38 -32
-24 -5 6 11 8 26 4 33 -6 9 -5 9 7 0 11 -9 20 -8 39 2 31 17 30 17 30 5z m58
-80 c-7 -11 -15 -15 -17 -9 -2 6 3 15 10 20 20 12 21 11 7 -11z m-130 -45 l-1
-50 -7 45 -7 45 -1 -41 c-2 -40 -2 -40 -34 -35 l-33 6 29 3 c27 3 28 6 23 42
-4 33 -2 38 14 37 16 -1 19 -9 17 -52z m90 18 c8 -23 7 -33 -1 -36 -8 -3 -13
10 -14 35 -1 45 0 45 15 1z m-59 -52 c1 -38 -12 -15 -15 27 -2 28 -1 32 6 17
5 -11 9 -31 9 -44z m-21 -39 c2 -6 -5 -8 -17 -5 -12 3 -21 9 -21 13 0 12 33 5
38 -8z m-55 1 c-7 -2 -21 -2 -30 0 -10 3 -4 5 12 5 17 0 24 -2 18 -5z m41 -29
c3 -8 2 -12 -4 -9 -6 3 -10 10 -10 16 0 14 7 11 14 -7z m-24 -4 c0 -5 -7 -7
-15 -4 -8 4 -15 8 -15 10 0 2 7 4 15 4 8 0 15 -4 15 -10z m60 -11 c0 -6 -4 -7
-10 -4 -5 3 -10 11 -10 16 0 6 5 7 10 4 6 -3 10 -11 10 -16z m-5 -23 c7 3 16
0 21 -7 5 -9 2 -10 -9 -6 -12 4 -17 1 -18 -11 0 -14 -2 -14 -9 3 -5 11 -9 25
-9 30 1 6 3 5 5 -2 3 -7 11 -10 19 -7z m50 -6 c3 -5 1 -10 -4 -10 -6 0 -11 5
-11 10 0 6 2 10 4 10 3 0 8 -4 11 -10z m-85 -21 c0 -6 -4 -7 -10 -4 -5 3 -10
11 -10 16 0 6 5 7 10 4 6 -3 10 -11 10 -16z m27 -41 c-3 -8 -6 -5 -6 6 -1 11
2 17 5 13 3 -3 4 -12 1 -19z m-30 -10 c-3 -8 -6 -5 -6 6 -1 11 2 17 5 13 3 -3
4 -12 1 -19z m93 -8 c0 -5 -2 -10 -4 -10 -3 0 -8 5 -11 10 -3 6 -1 10 4 10 6
0 11 -4 11 -10z m30 0 c0 -5 -2 -10 -4 -10 -3 0 -8 5 -11 10 -3 6 -1 10 4 10
6 0 11 -4 11 -10z m30 0 c0 -5 -2 -10 -4 -10 -3 0 -8 5 -11 10 -3 6 -1 10 4
10 6 0 11 -4 11 -10z m155 0 c18 -8 17 -9 -7 -9 -16 -1 -28 4 -28 9 0 12 8 12
35 0z m-375 -35 c0 -8 -4 -15 -10 -15 -5 0 -7 7 -4 15 4 8 8 15 10 15 2 0 4
-7 4 -15z m90 -11 c0 15 28 -14 33 -34 7 -29 -2 -25 -13 6 -12 30 -32 23 -26
-9 1 -12 1 -16 -1 -9 -8 21 -21 13 -17 -10 4 -21 4 -22 -5 -3 -13 27 -13 48
-1 40 6 -3 10 4 10 17 0 18 2 20 10 8 5 -8 10 -11 10 -6z m233 -11 c-7 -2 -19
-2 -25 0 -7 3 -2 5 12 5 14 0 19 -2 13 -5z m-309 -19 c3 -8 11 -12 17 -8 8 4
9 -1 4 -16 -4 -14 -3 -20 2 -17 6 4 8 -5 6 -21 -4 -21 -2 -24 6 -12 6 8 11 10
11 4 0 -6 -8 -18 -17 -25 -9 -8 -14 -9 -10 -3 4 7 1 14 -6 17 -9 3 -12 16 -9
36 3 22 0 33 -12 37 -9 3 -16 10 -16 15 0 15 17 10 24 -7z m206 1 c0 -8 -4
-15 -10 -15 -5 0 -7 7 -4 15 4 8 8 15 10 15 2 0 4 -7 4 -15z m350 -15 c0 -5
-4 -10 -10 -10 -5 0 -10 5 -10 10 0 6 5 10 10 10 6 0 10 -4 10 -10z m100 7 c0
-1 -4 -17 -10 -35 l-9 -33 42 3 c42 3 45 -1 26 -32 -7 -13 -8 -12 -9 3 0 15
-7 18 -32 17 -18 -1 -44 -1 -58 0 l-25 2 25 7 c19 5 26 14 28 39 2 18 7 32 13
32 5 0 9 -1 9 -3z m95 -7 c19 -8 19 -9 -2 -9 -15 -1 -23 -7 -24 -18 0 -15 -2
-15 -8 2 -14 33 -3 41 34 25z m-237 -7 c-10 -2 -28 -2 -40 0 -13 2 -5 4 17 4
22 1 32 -1 23 -4z m-168 -13 c0 -5 -5 -10 -11 -10 -5 0 -7 5 -4 10 3 6 8 10
11 10 2 0 4 -4 4 -10z m195 -57 c-3 -19 -9 -33 -12 -30 -3 3 -2 25 2 49 5 24
10 37 12 30 3 -7 2 -29 -2 -49z m-275 31 c0 -8 -5 -12 -10 -9 -6 4 -8 11 -5
16 9 14 15 11 15 -7z m-161 -76 c-5 -10 -15 -18 -22 -17 -9 0 -9 2 1 6 6 2 12
9 12 15 0 7 -5 6 -14 -1 -18 -15 -88 -21 -83 -7 2 6 12 11 23 12 39 2 64 16
64 38 1 20 1 20 14 -4 10 -17 11 -30 5 -42z m164 1 c-8 -29 -13 -23 -13 14 0
22 3 28 9 18 5 -7 6 -22 4 -32z m97 37 c0 -2 -7 -6 -15 -10 -8 -3 -15 -1 -15
4 0 6 7 10 15 10 8 0 15 -2 15 -4z m-138 -46 c-23 -22 -32 -25 -32 -12 0 5 10
14 23 20 32 15 33 14 9 -8z m-472 -10 c0 -5 -5 -10 -11 -10 -5 0 -7 -5 -4 -10
4 -6 -12 -28 -34 -49 -44 -42 -53 -42 -21 -1 11 14 20 28 20 33 0 9 33 45 43
46 4 1 7 -3 7 -9z m316 -19 c4 8 3 9 -4 5 -7 -4 -12 -2 -12 4 0 28 89 -24 90
-52 0 -9 6 -23 13 -30 24 -24 28 -51 16 -105 -12 -54 -37 -81 -61 -67 -7 4 -8
3 -4 -4 4 -7 2 -12 -3 -12 -6 0 -11 8 -12 18 0 11 -2 12 -6 4 -4 -10 -8 -10
-21 0 -13 11 -15 10 -9 -12 l6 -25 -16 22 -15 22 -37 -19 c-45 -24 -113 -21
-174 9 -24 12 -62 21 -86 21 -54 0 -81 15 -80 43 0 12 3 16 6 10 2 -7 11 -13
19 -13 8 0 14 -4 14 -10 0 -5 24 -8 53 -6 30 2 63 -3 80 -11 15 -8 32 -11 37
-8 5 3 11 1 14 -4 5 -8 54 -8 64 0 1 1 6 2 12 3 15 2 40 42 32 51 -4 5 -1 5 7
0 8 -4 17 -2 23 6 8 11 9 10 5 -3 -7 -21 21 -33 39 -17 8 6 14 18 14 25 0 8 5
14 10 14 15 0 12 -17 -6 -35 -9 -9 -13 -19 -9 -23 4 -4 18 7 33 23 14 17 33
30 41 30 9 0 14 5 11 10 -2 6 -10 9 -17 7 -7 -2 -13 2 -13 8 0 5 7 10 16 10 8
0 13 4 9 10 -3 5 -11 7 -18 4 -7 -2 -17 6 -22 18 -15 33 -38 37 -25 3 13 -34
13 -45 -1 -45 -5 0 -8 4 -5 9 3 5 -3 29 -15 52 -20 43 -20 43 -16 11 5 -41
-10 -28 -16 15 -3 17 -8 37 -12 43 -4 7 4 5 18 -5 19 -12 27 -13 33 -4z m-65
-8 c13 -16 12 -17 -3 -4 -10 7 -18 15 -18 17 0 8 8 3 21 -13z m174 7 c-3 -5
-11 -10 -16 -10 -6 0 -7 5 -4 10 3 6 11 10 16 10 6 0 7 -4 4 -10z m165 0 c0
-5 -12 -10 -27 -9 l-28 1 25 8 c14 4 26 8 28 9 1 1 2 -3 2 -9z m-75 -9 c3 -5
1 -12 -5 -16 -5 -3 -10 1 -10 9 0 18 6 21 15 7z m-52 -36 c-3 -9 -8 -14 -10
-11 -3 3 -2 9 2 15 9 16 15 13 8 -4z m-33 -15 c0 -5 -4 -10 -10 -10 -5 0 -10
5 -10 10 0 6 5 10 10 10 6 0 10 -4 10 -10z m317 -25 c-7 -7 -14 -9 -17 -5 -3
4 -14 10 -25 13 -15 4 -14 5 8 6 15 0 27 7 27 14 0 8 3 8 9 -2 6 -9 5 -19 -2
-26z m-235 -32 c-7 -36 -12 -27 -11 20 0 30 3 36 8 23 4 -11 6 -30 3 -43z m72
26 c-3 -5 -10 -7 -15 -3 -5 3 -7 10 -3 15 3 5 10 7 15 3 5 -3 7 -10 3 -15z
m-287 -21 c-3 -8 -6 -5 -6 6 -1 11 2 17 5 13 3 -3 4 -12 1 -19z m173 -2 c0 -3
-4 -8 -10 -11 -5 -3 -10 -1 -10 4 0 6 5 11 10 11 6 0 10 -2 10 -4z m-165 -26
c3 -5 1 -10 -4 -10 -6 0 -11 5 -11 10 0 6 2 10 4 10 3 0 8 -4 11 -10z m218
-31 c5 -3 -2 -8 -16 -11 -22 -4 -24 -3 -14 13 6 10 14 15 17 11 3 -4 9 -10 13
-13z m97 5 c0 -2 -19 -4 -42 -3 -31 0 -37 3 -24 8 18 7 66 3 66 -5z m-111 -86
c-2 -56 -3 -58 -8 -23 -6 38 -3 85 5 85 2 0 3 -28 3 -62z m295 30 c6 -5 2 -8
-11 -8 -17 0 -20 4 -15 22 4 16 7 18 10 8 3 -8 10 -18 16 -22z m-164 -5 c0
-21 -3 -24 -9 -14 -5 8 -7 20 -4 28 8 21 13 15 13 -14z m-66 -4 c-3 -5 -10 -7
-15 -3 -5 3 -7 10 -3 15 3 5 10 7 15 3 5 -3 7 -10 3 -15z m145 14 c0 -5 -4
-17 -9 -28 -8 -18 -9 -17 -9 8 -1 15 4 27 9 27 6 0 10 -3 9 -7z m-79 -64 c0
-5 -4 -9 -10 -9 -5 0 -10 7 -10 16 0 8 5 12 10 9 6 -3 10 -10 10 -16z m136 -5
c-6 -31 -16 -45 -16 -21 0 18 10 47 16 47 3 0 2 -12 0 -26z m-201 6 c4 -6 -6
-10 -22 -9 -25 0 -26 1 -8 9 11 5 21 9 22 9 1 1 5 -3 8 -9z m145 0 c12 -8 11
-10 -7 -10 -13 0 -23 5 -23 10 0 13 11 13 30 0z m-93 -42 c-3 -8 -6 -5 -6 6
-1 11 2 17 5 13 3 -3 4 -12 1 -19z m-27 -27 c0 -3 -20 -6 -45 -6 -25 0 -45 5
-45 10 0 6 19 9 45 7 25 -2 45 -7 45 -11z m60 -11 c0 -4 -11 -5 -25 -2 -14 2
-25 8 -25 12 0 4 11 5 25 2 14 -2 25 -8 25 -12z m70 -15 c17 -4 28 -10 25 -15
-3 -5 -17 -2 -32 5 -30 16 -43 12 -43 -13 0 -9 -7 -30 -16 -47 -8 -16 -12 -40
-9 -52 5 -22 3 -23 -47 -21 -50 1 -51 2 -10 5 28 3 42 9 42 19 0 8 -5 14 -12
14 -6 0 -4 6 7 13 11 9 15 19 10 27 -5 9 -4 11 3 6 12 -7 25 32 32 89 0 6 5 2
10 -7 6 -9 24 -19 40 -23z m-310 15 c0 -5 -2 -10 -4 -10 -3 0 -8 5 -11 10 -3
6 -1 10 4 10 6 0 11 -4 11 -10z m56 1 c-3 -5 -15 -7 -26 -4 -28 7 -25 13 6 13
14 0 23 -4 20 -9z m31 -38 c-16 -16 -15 -19 6 -41 15 -17 18 -26 10 -29 -18
-6 -16 -33 1 -33 8 0 17 -4 20 -9 3 -5 -7 -8 -22 -8 -15 0 -45 -3 -67 -7 -22
-4 -49 -9 -60 -11 -11 -1 -39 -7 -62 -13 -24 -5 -44 -8 -44 -6 -1 2 -2 10 -3
17 -1 8 -19 12 -51 13 -136 2 -253 8 -275 14 -24 7 82 11 278 12 50 0 92 3 92
7 0 4 26 7 58 7 45 -1 56 2 54 14 -2 13 0 13 10 -1 14 -17 49 -33 46 -21 -1 4
2 15 7 25 5 12 1 25 -14 41 -11 12 -21 29 -21 37 0 12 2 12 11 -1 9 -13 11
-13 22 2 6 9 13 15 16 12 3 -2 -3 -12 -12 -21z m-159 -29 c-3 -14 -5 -12 -10
9 -3 19 -2 25 4 19 6 -6 8 -18 6 -28z m87 18 c-3 -3 -11 0 -18 7 -9 10 -8 11
6 5 10 -3 15 -9 12 -12z m116 -15 c-10 -9 -11 -8 -5 6 3 10 9 15 12 12 3 -3 0
-11 -7 -18z m49 -43 c0 -8 -5 -12 -10 -9 -6 4 -8 11 -5 16 9 14 15 11 15 -7z
m149 -14 c9 0 22 5 29 12 9 9 12 8 12 -5 0 -13 -9 -17 -35 -17 -21 0 -35 -5
-36 -12 0 -10 -2 -10 -6 -1 -3 10 -10 10 -26 1 -16 -8 -14 -3 8 18 19 18 31
24 33 17 2 -7 11 -13 21 -13z m-228 -97 c-9 -15 -10 -14 -11 10 0 29 -10 33
-41 17 -10 -6 -19 -7 -19 -2 0 4 12 13 28 18 22 8 29 7 40 -8 9 -13 10 -23 3
-35z m-248 32 c-3 -9 -8 -14 -10 -11 -3 3 -2 9 2 15 9 16 15 13 8 -4z m478
-76 c-20 -8 -23 -6 -15 14 4 13 9 14 19 4 11 -10 10 -13 -4 -18z m-244 -11
c-3 -8 -6 -5 -6 6 -1 11 2 17 5 13 3 -3 4 -12 1 -19z m65 0 c-7 -7 -12 -8 -12
-2 0 14 12 26 19 19 2 -3 -1 -11 -7 -17z m58 12 c0 -5 -5 -10 -11 -10 -5 0 -7
5 -4 10 3 6 8 10 11 10 2 0 4 -4 4 -10z m-134 -70 c-6 -38 -5 -40 19 -40 17 0
25 6 26 18 1 15 2 15 6 -1 4 -14 11 -18 29 -14 14 2 27 0 30 -4 3 -5 -32 -8
-78 -8 -46 1 -75 3 -66 6 12 3 20 18 24 44 4 21 9 39 12 39 2 0 2 -18 -2 -40z
m69 10 c-3 -5 -10 -10 -16 -10 -5 0 -9 5 -9 10 0 6 7 10 16 10 8 0 12 -4 9
-10z m55 6 c0 -3 -4 -8 -10 -11 -5 -3 -10 -1 -10 4 0 6 5 11 10 11 6 0 10 -2
10 -4z m-173 -12 c-3 -3 -12 -4 -19 -1 -8 3 -5 6 6 6 11 1 17 -2 13 -5z m194
-67 c-6 -15 -15 -27 -21 -27 -7 0 -7 6 -1 18 5 9 13 26 16 37 4 11 9 15 11 9
3 -6 0 -23 -5 -37z m-214 17 c-3 -3 -12 -4 -19 -1 -8 3 -5 6 6 6 11 1 17 -2
13 -5z m163 -29 c0 -8 -4 -15 -10 -15 -5 0 -7 7 -4 15 4 8 8 15 10 15 2 0 4
-7 4 -15z m-108 -30 c-6 -35 -19 -31 -14 5 2 16 8 28 12 25 4 -2 5 -16 2 -30z
m58 25 c0 -5 -5 -10 -11 -10 -5 0 -7 5 -4 10 3 6 8 10 11 10 2 0 4 -4 4 -10z
m45 -30 c3 -5 1 -10 -4 -10 -6 0 -11 5 -11 10 0 6 2 10 4 10 3 0 8 -4 11 -10z
m35 -6 c0 -8 -5 -12 -10 -9 -6 4 -8 11 -5 16 9 14 15 11 15 -7z m-80 2 c0 -3
-4 -8 -10 -11 -5 -3 -10 -1 -10 4 0 6 5 11 10 11 6 0 10 -2 10 -4z m35 -47
c-10 -15 -25 -10 -19 6 4 8 10 12 15 9 5 -3 7 -10 4 -15z m26 -6 c-8 -15 -10
-15 -11 -2 0 17 10 32 18 25 2 -3 -1 -13 -7 -23z m-134 -5 c-3 -8 -6 -5 -6 6
-1 11 2 17 5 13 3 -3 4 -12 1 -19z m56 -3 c-7 -21 -13 -19 -13 6 0 11 4 18 10
14 5 -3 7 -12 3 -20z m-63 -50 c0 -9 -6 -12 -16 -8 -13 5 -13 7 -2 14 17 11
18 11 18 -6z m-43 -1 c-3 -3 -12 -4 -19 -1 -8 3 -5 6 6 6 11 1 17 -2 13 -5z
m39 -50 c-4 -9 -9 -15 -11 -12 -3 3 -3 13 1 22 4 9 9 15 11 12 3 -3 3 -13 -1
-22z m-15 -57 c-10 -9 -11 -8 -5 6 3 10 9 15 12 12 3 -3 0 -11 -7 -18z"/>
<path d="M1775 1809 c-4 -6 -5 -12 -2 -15 2 -3 7 2 10 11 7 17 1 20 -8 4z"/>
<path d="M1806 1785 c4 -8 11 -15 16 -15 6 0 5 6 -2 15 -7 8 -14 15 -16 15 -2
0 -1 -7 2 -15z"/>
<path d="M1821 1654 c-21 -24 -5 -28 20 -5 16 14 18 21 8 21 -8 -1 -20 -8 -28
-16z"/>
<path d="M1765 1300 c-8 -13 5 -13 25 0 13 8 13 10 -2 10 -9 0 -20 -4 -23 -10z"/>
<path d="M1620 3666 l0 -35 51 1 50 0 -3 31 c-3 34 -34 50 -49 25 -6 -10 -9
-10 -9 0 0 6 -9 12 -20 12 -16 0 -20 -7 -20 -34z"/>
<path d="M1791 3610 l0 -80 42 0 c23 0 59 -3 79 -6 l37 -6 -1 71 0 71 -36 10
c-25 6 -38 6 -43 -1 -4 -7 -8 -5 -12 5 -4 10 -18 16 -36 16 l-29 0 -1 -80z
m70 -22 l-5 -33 -6 30 c-7 32 -3 48 9 41 4 -3 5 -20 2 -38z m66 16 c-3 -3 -12
-4 -19 -1 -8 3 -5 6 6 6 11 1 17 -2 13 -5z"/>
<path d="M2160 3552 c0 -17 18 -37 63 -71 15 -12 17 -10 17 17 0 24 -7 35 -34
51 -41 26 -46 26 -46 3z"/>
<path d="M2250 3486 c0 -15 13 -36 35 -55 41 -36 41 -36 49 -15 4 9 -9 29 -35
55 -22 21 -42 39 -44 39 -3 0 -5 -11 -5 -24z"/>
<path d="M2510 3271 c0 -6 4 -13 10 -16 6 -3 7 1 4 9 -7 18 -14 21 -14 7z"/>
<path d="M2580 3089 c0 -8 7 -24 16 -35 14 -18 15 -18 8 6 -8 31 -24 50 -24
29z"/>
<path d="M2614 2968 c5 -62 22 -126 31 -116 5 5 -23 169 -30 177 -3 3 -3 -25
-1 -61z"/>
<path d="M2486 3011 c-10 -15 1 -61 14 -61 12 0 12 26 1 54 -5 14 -10 16 -15
7z"/>
<path d="M2433 2978 c-4 -7 -14 -13 -20 -14 -7 -1 -20 -2 -28 -2 -8 -1 -16
-12 -16 -24 -1 -17 -2 -19 -6 -5 -5 18 -29 22 -51 8 -21 -13 -10 -44 18 -52
24 -7 24 -7 3 -8 -16 -1 -23 -7 -23 -22 0 -18 5 -20 43 -17 23 1 42 -2 42 -7
0 -6 -17 -8 -37 -7 -33 3 -38 1 -38 -17 0 -17 6 -21 35 -21 21 0 35 5 35 13 0
9 2 9 8 -1 10 -15 57 -10 56 6 -2 29 -5 32 -26 33 -14 1 -4 7 25 16 42 13 47
17 41 36 -9 29 -10 30 -29 24 -8 -4 -16 -17 -16 -29 -1 -17 -2 -18 -6 -5 -2 9
-8 17 -13 17 -4 0 -6 9 -3 21 4 13 8 16 13 10 8 -15 40 -3 40 14 0 40 -30 60
-47 33z m-33 -82 c0 -2 -7 -9 -15 -16 -12 -10 -15 -10 -15 4 0 9 7 16 15 16 8
0 15 -2 15 -4z"/>
<path d="M2080 2890 l0 -50 34 0 c33 0 33 0 35 50 l1 50 -35 0 -35 0 0 -50z"/>
<path d="M2471 2851 c-13 -8 -7 -51 7 -51 18 1 34 19 30 35 -4 22 -18 28 -37
16z"/>
<path d="M2636 2808 c4 -18 8 -60 8 -94 1 -48 4 -58 13 -48 7 7 11 18 8 26 -3
11 -13 101 -15 136 0 6 -5 12 -11 12 -7 0 -8 -11 -3 -32z"/>
<path d="M2080 2815 c0 -10 11 -15 35 -15 24 0 35 5 35 15 0 10 -11 15 -35 15
-24 0 -35 -5 -35 -15z"/>
<path d="M2632 2610 c1 -30 11 -39 23 -21 3 5 1 12 -4 16 -6 3 -8 12 -4 20 3
8 0 15 -5 15 -6 0 -10 -13 -10 -30z"/>
<path d="M2672 2620 c0 -14 2 -19 5 -12 2 6 2 18 0 25 -3 6 -5 1 -5 -13z"/>
<path d="M2287 2596 c3 -15 12 -26 22 -26 9 0 23 -5 31 -10 11 -8 7 -9 -14 -4
-25 6 -28 4 -23 -10 4 -10 10 -29 13 -43 4 -13 16 -28 28 -33 17 -7 18 -9 4
-9 -21 -1 -22 -7 -7 -50 6 -17 16 -31 22 -31 9 0 9 -2 0 -8 -6 -4 -13 -14 -15
-22 -2 -7 -13 -24 -25 -35 -13 -12 -20 -25 -17 -28 9 -8 33 16 26 27 -3 5 0 6
7 2 6 -4 19 0 28 9 10 10 18 13 22 6 4 -5 19 -8 34 -7 21 3 27 0 23 -11 -3 -8
-6 -21 -6 -29 0 -8 -5 -14 -11 -14 -6 0 -8 7 -5 15 4 11 -3 19 -21 26 -32 12
-42 5 -14 -11 12 -6 21 -15 21 -21 0 -6 -14 -2 -30 8 -27 16 -32 16 -40 3 -7
-11 -4 -20 10 -32 11 -9 20 -22 20 -28 0 -7 7 -10 16 -6 14 5 15 4 5 -8 -7 -8
-19 -12 -28 -9 -11 4 -14 2 -11 -8 3 -8 11 -13 17 -11 6 1 11 -7 11 -18 0 -14
-7 -20 -21 -20 -16 0 -19 4 -14 20 4 11 2 20 -4 20 -6 0 -11 -4 -11 -9 0 -5
-13 -12 -28 -16 -24 -5 -28 -10 -28 -41 0 -32 3 -35 23 -31 12 2 20 0 17 -4
-3 -5 -16 -9 -30 -9 -15 0 -24 -6 -24 -15 0 -11 12 -15 44 -15 42 0 44 2 49
33 2 17 0 35 -5 38 -5 3 -2 9 7 13 25 9 27 8 20 -15 -6 -18 -3 -20 27 -17 l33
3 -3 59 c-3 77 10 65 15 -14 l5 -60 -47 0 c-39 0 -46 -3 -43 -17 5 -26 65 -31
71 -6 4 17 5 17 6 1 1 -12 9 -18 27 -18 l26 0 -6 103 c-2 56 -7 113 -9 127 -2
14 -5 35 -5 46 -2 16 -8 21 -27 19 -22 -3 -24 0 -19 28 3 18 7 38 9 44 3 7 -5
18 -16 24 -20 10 -20 8 -18 -35 2 -25 -1 -46 -6 -46 -5 0 -8 20 -6 45 1 29 -2
45 -9 45 -6 0 -8 5 -5 10 4 7 13 6 26 -1 11 -6 27 -8 34 -5 8 2 15 -4 19 -17
4 -16 8 -19 16 -11 8 8 8 22 2 45 -7 24 -11 28 -12 14 -2 -11 -5 -5 -9 15 -3
19 -4 49 -2 65 3 24 7 17 20 -40 12 -50 21 -71 34 -73 14 -3 17 4 17 32 0 30
-3 36 -22 37 -23 0 -23 0 1 10 31 12 36 6 32 -41 -2 -35 0 -40 18 -40 12 0 21
6 21 13 0 8 3 8 9 -2 8 -12 12 -12 25 2 21 20 21 48 1 41 -11 -5 -15 1 -14 22
1 17 3 22 6 12 7 -29 23 -20 23 12 0 29 -2 30 -34 27 -19 -2 -40 0 -48 4 -9 6
-15 1 -20 -14 -6 -22 -6 -22 -7 -1 -1 25 -44 39 -157 50 l-72 6 5 -26z m100
-53 c-11 -10 -26 8 -20 23 5 15 7 14 15 -1 6 -9 7 -19 5 -22z m189 -40 c-11
-11 -24 9 -18 29 l5 22 9 -24 c5 -12 6 -25 4 -27z m-189 -10 c-3 -10 -5 -4 -5
12 0 17 2 24 5 18 2 -7 2 -21 0 -30z m-9 -219 c12 -4 22 -10 22 -15 0 -13 -23
-10 -44 6 -21 16 -15 18 22 9z m62 -23 c0 -12 -20 -25 -27 -18 -7 7 6 27 18
27 5 0 9 -4 9 -9z m-113 -107 c-3 -3 -12 -4 -19 -1 -8 3 -5 6 6 6 11 1 17 -2
13 -5z"/>
<path d="M2643 2573 c-7 -3 -13 -14 -13 -26 0 -20 1 -20 16 -5 18 18 16 37 -3
31z"/>
<path d="M2672 2550 c0 -14 2 -19 5 -12 2 6 2 18 0 25 -3 6 -5 1 -5 -13z"/>
<path d="M2640 2525 c-6 -8 -8 -20 -4 -26 4 -7 7 -27 6 -46 -1 -19 2 -31 7
-28 8 4 15 115 7 115 -2 0 -9 -7 -16 -15z"/>
<path d="M546 2462 c-4 -7 -22 -12 -40 -12 -47 0 -83 -31 -88 -77 -3 -22 10
-106 29 -196 25 -122 45 -187 88 -286 30 -70 55 -134 55 -142 0 -10 3 -10 11
-2 9 9 9 24 -1 59 -11 39 -11 48 1 54 12 7 12 27 5 117 -5 59 -8 151 -7 205 1
71 -5 122 -22 194 -13 53 -27 92 -31 86z m-62 -57 c11 -8 15 -15 10 -15 -6 0
-19 7 -30 15 -10 8 -14 14 -9 14 6 0 19 -6 29 -14z m43 -42 c14 -19 45 -85 41
-88 -2 -2 -17 22 -35 51 -31 53 -34 72 -6 37z"/>
<path d="M2707 2448 c13 -6 25 -19 28 -30 4 -10 11 -15 17 -12 6 4 5 10 -3 15
-8 5 -9 9 -4 9 13 1 -37 29 -50 29 -5 0 0 -5 12 -11z"/>
<path d="M2490 2407 l0 -32 58 0 c57 0 57 0 57 30 0 30 -1 30 -57 32 l-58 2 0
-32z"/>
<path d="M2622 2415 c0 -16 2 -22 5 -12 2 9 2 23 0 30 -3 6 -5 -1 -5 -18z"/>
<path d="M2440 2388 c0 -25 3 -29 10 -18 13 20 13 50 0 50 -5 0 -10 -15 -10
-32z"/>
<path d="M2468 2390 c-3 -16 -1 -30 4 -30 4 0 8 14 8 30 0 17 -2 30 -4 30 -2
0 -6 -13 -8 -30z"/>
<path d="M2697 2405 c3 -8 9 -12 14 -9 12 7 11 11 -5 17 -10 4 -13 1 -9 -8z"/>
<path d="M2095 2402 c6 -6 33 -13 60 -17 28 -3 65 -8 83 -11 36 -7 45 10 10
20 -48 13 -163 19 -153 8z"/>
<path d="M2282 2349 c2 -22 6 -39 9 -39 12 0 51 49 45 58 -3 5 -17 12 -31 14
-24 5 -25 3 -23 -33z"/>
<path d="M2667 2384 c-4 -4 -7 -11 -7 -15 0 -9 27 -5 37 6 4 4 3 5 -4 2 -6 -4
-13 -2 -15 4 -2 5 -7 7 -11 3z"/>
<path d="M2028 2373 c12 -2 30 -2 40 0 9 3 -1 5 -23 4 -22 0 -30 -2 -17 -4z"/>
<path d="M2495 2362 c-9 -9 -5 -82 4 -82 5 0 16 7 25 15 9 9 17 11 21 5 9 -14
-3 -30 -18 -25 -20 8 -38 -10 -31 -29 5 -13 13 -16 33 -11 29 7 42 23 38 45
-2 8 8 30 21 49 25 34 25 34 4 29 -12 -4 -24 -2 -27 2 -6 9 -61 10 -70 2z m35
-27 c7 -9 8 -15 2 -15 -5 0 -12 7 -16 15 -3 8 -4 15 -2 15 2 0 9 -7 16 -15z"/>
<path d="M2033 2323 c-19 -3 -50 -21 -79 -46 -29 -26 -49 -37 -52 -29 -2 6
-10 12 -18 12 -28 0 38 -50 80 -61 58 -16 233 -7 273 14 59 31 54 55 -20 92
-50 25 -94 29 -184 18z"/>
<path d="M1911 2286 c-7 -8 -8 -17 -3 -19 4 -3 13 3 20 14 14 22 0 26 -17 5z"/>
<path d="M2682 2270 c-7 -11 -9 -20 -4 -20 4 0 13 9 20 20 7 11 9 20 4 20 -4
0 -13 -9 -20 -20z"/>
<path d="M2288 2213 c19 -8 14 -23 -9 -23 -11 0 -17 4 -14 10 4 6 -1 7 -11 3
-10 -4 -13 -8 -7 -10 7 -3 9 -11 6 -20 -5 -12 -1 -14 18 -8 35 11 50 30 36 44
-6 6 -16 11 -21 10 -6 0 -5 -3 2 -6z"/>
<path d="M2500 2195 c0 -18 5 -25 18 -25 11 0 24 11 30 25 11 24 10 25 -18 25
-25 0 -30 -4 -30 -25z"/>
<path d="M2720 2170 c0 -16 2 -30 4 -30 2 0 6 14 8 30 3 17 1 30 -4 30 -4 0
-8 -13 -8 -30z"/>
<path d="M2656 2175 c-3 -9 -6 -26 -5 -38 1 -14 4 -9 9 13 9 37 7 52 -4 25z"/>
<path d="M2182 2171 c-17 -11 -8 -56 13 -63 17 -5 15 -6 -7 -7 -21 -1 -29 -7
-34 -26 -4 -14 -5 -28 -3 -30 2 -2 25 -1 52 2 47 6 65 27 30 36 -15 4 -14 5 2
6 26 1 33 52 9 72 -17 14 -48 19 -62 10z m35 -47 c-3 -3 -12 -4 -19 -1 -8 3
-5 6 6 6 11 1 17 -2 13 -5z"/>
<path d="M2741 2153 c0 -25 1 -26 9 -8 12 27 12 35 0 35 -5 0 -10 -12 -9 -27z"/>
<path d="M2507 2153 c-2 -4 -5 -32 -5 -60 -1 -40 3 -53 13 -53 11 0 14 12 13
43 0 23 1 48 3 56 4 15 -16 27 -24 14z"/>
<path d="M2671 2134 c0 -11 3 -14 6 -6 3 7 2 16 -1 19 -3 4 -6 -2 -5 -13z"/>
<path d="M2726 2104 c-3 -9 -6 -27 -6 -42 0 -31 15 -19 24 20 7 29 -8 48 -18
22z"/>
<path d="M2642 2085 c0 -16 2 -22 5 -12 2 9 2 23 0 30 -3 6 -5 -1 -5 -18z"/>
<path d="M2668 2090 c-11 -38 -10 -56 3 -43 6 6 9 23 7 39 l-3 29 -7 -25z"/>
<path d="M2486 1963 c-8 -38 -18 -78 -22 -90 -5 -17 -2 -23 10 -23 16 0 32 42
22 59 -3 5 -2 11 3 13 15 6 24 48 9 48 -9 0 -10 3 -2 8 19 12 27 52 11 52 -10
0 -20 -22 -31 -67z"/>
<path d="M2656 2004 c-4 -14 -5 -28 -3 -31 3 -2 8 8 11 23 4 14 5 28 3 31 -3
2 -8 -8 -11 -23z"/>
<path d="M2710 2011 c0 -11 -3 -28 -6 -38 -5 -12 -4 -15 3 -8 15 15 25 65 13
65 -5 0 -10 -9 -10 -19z"/>
<path d="M2693 1933 c-3 -10 -8 -22 -11 -27 -3 -5 0 -6 5 -3 11 7 25 47 17 47
-3 0 -7 -8 -11 -17z"/>
<path d="M2641 1924 c0 -11 3 -14 6 -6 3 7 2 16 -1 19 -3 4 -6 -2 -5 -13z"/>
<path d="M608 1844 c-3 -3 -1 -18 5 -35 8 -20 8 -37 1 -57 -14 -37 1 -68 39
-81 16 -6 31 -11 32 -11 1 0 -10 43 -24 95 -23 85 -36 107 -53 89z"/>
<path d="M2292 1772 c-28 -88 -28 -92 7 -92 25 0 31 6 41 35 6 19 9 39 5 45
-7 11 -5 11 75 12 l55 1 1 34 c1 41 -20 44 -35 6 l-11 -28 5 28 c5 23 2 27
-18 27 -15 0 -28 -9 -36 -22 l-11 -23 6 23 c5 20 2 22 -28 22 -33 0 -35 -2
-56 -68z"/>
<path d="M2496 1804 c-4 -14 -5 -28 -3 -31 3 -2 8 8 11 23 4 14 5 28 3 31 -3
2 -8 -8 -11 -23z"/>
<path d="M2354 1725 c-7 -19 -14 -37 -14 -39 0 -3 29 -5 63 -4 l64 2 -10 38
c-10 39 -32 51 -40 21 -4 -17 -5 -17 -6 0 -2 32 -41 20 -57 -18z"/>
<path d="M2317 1603 c-21 -84 -21 -91 1 -95 11 -3 21 6 29 27 l13 30 -6 -32
c-4 -26 -2 -33 10 -33 9 0 16 6 16 13 0 8 3 7 10 -3 12 -20 20 -10 26 36 4 29
3 35 -5 24 -9 -13 -11 -13 -11 3 0 9 7 17 15 17 8 0 15 7 15 16 0 8 4 13 9 10
5 -4 7 4 4 16 -4 19 -3 20 6 8 7 -10 11 -11 11 -3 0 14 -31 33 -54 33 -8 0
-17 -8 -19 -17 -4 -17 -5 -17 -6 0 -1 11 -9 17 -24 17 -20 0 -25 -9 -40 -67z
m63 -17 c0 -11 -19 -15 -25 -6 -3 5 1 10 9 10 9 0 16 -2 16 -4z"/>
<path d="M2467 1573 c-4 -3 -7 -18 -6 -32 1 -26 1 -25 10 3 9 31 7 41 -4 29z"/>
<path d="M2474 1499 c-3 -6 -2 -15 3 -20 5 -5 9 -1 10 11 2 22 -2 25 -13 9z"/>
<path d="M2438 1475 c-6 -28 6 -34 16 -9 8 22 7 34 -3 34 -5 0 -11 -11 -13
-25z"/>
<path d="M2457 1428 c-2 -13 -8 -31 -12 -40 -4 -10 -3 -18 2 -18 5 0 14 18 20
40 5 22 7 40 3 40 -4 0 -10 -10 -13 -22z"/>
<path d="M2397 1410 c-4 -15 -1 -20 11 -18 32 6 43 38 13 38 -10 0 -21 -9 -24
-20z"/>
<path d="M2358 1403 c0 -10 -1 -24 -1 -30 1 -7 -3 -13 -7 -13 -4 0 -10 -11
-13 -25 -3 -20 -1 -25 12 -23 9 2 18 18 22 38 3 19 10 43 14 53 5 12 3 17 -9
17 -9 0 -17 -8 -18 -17z"/>
<path d="M2450 1330 c0 -5 -7 -7 -15 -4 -8 4 -15 2 -15 -4 0 -14 33 -8 38 6 2
7 1 12 -2 12 -3 0 -6 -4 -6 -10z"/>
<path d="M2381 1294 c0 -11 3 -14 6 -6 3 7 2 16 -1 19 -3 4 -6 -2 -5 -13z"/>
<path d="M2324 1276 c-3 -14 -3 -30 1 -35 3 -6 2 -11 -3 -11 -4 0 -17 -28 -27
-62 -10 -35 -25 -70 -34 -78 -13 -13 -13 -15 4 -18 18 -4 37 15 32 32 -2 6 5
18 16 29 10 10 16 25 13 32 -3 8 0 15 6 17 5 2 11 18 13 36 1 18 5 35 9 39 3
3 6 15 6 25 0 27 -29 22 -36 -6z"/>
<path d="M2315 1099 c-4 -6 -5 -12 -2 -15 2 -3 7 2 10 11 7 17 1 20 -8 4z"/>
<path d="M2143 1061 c-9 -20 -23 -44 -31 -54 -11 -12 -12 -21 -5 -28 7 -7 17
1 33 28 12 21 21 40 20 42 -1 2 4 8 12 12 29 19 28 7 -1 -30 -17 -21 -31 -42
-31 -47 0 -4 -12 -20 -27 -36 -33 -34 -22 -50 12 -18 14 13 25 20 25 16 0 -4
9 -2 21 4 11 7 18 14 15 17 -3 3 -12 0 -21 -7 -10 -8 -15 -9 -15 -2 0 13 35
34 43 26 9 -9 47 16 47 30 0 12 21 28 42 30 3 1 9 4 13 8 4 4 -12 5 -34 4 -39
-3 -40 -2 -26 14 23 25 19 28 -30 28 -42 -1 -47 -4 -62 -37z m77 -41 c-8 -5
-17 -7 -19 -4 -3 3 1 9 9 14 8 5 17 7 19 4 3 -3 -1 -9 -9 -14z"/>
<path d="M2256 979 c-9 -19 -15 -28 -16 -20 0 11 -3 11 -16 0 -9 -7 -23 -14
-31 -15 -19 -3 -30 -14 -15 -14 7 0 12 -7 12 -16 0 -13 -3 -14 -14 -5 -17 15
-55 -6 -80 -43 -8 -13 -28 -26 -44 -29 -16 -3 -40 -15 -53 -27 -13 -11 -40
-32 -59 -46 l-35 -25 30 6 c19 4 25 3 17 -3 -10 -7 -10 -15 -1 -38 7 -16 13
-40 15 -54 2 -14 -5 -3 -15 24 -9 28 -22 51 -28 53 -5 2 -31 -5 -57 -17 -135
-57 -276 -66 -416 -25 -58 17 -80 29 -165 90 -39 27 -82 57 -96 65 -41 23
-143 94 -150 104 -4 5 -12 5 -18 2 -6 -4 -10 -2 -9 5 2 6 -3 14 -11 17 -11 4
-12 -6 -7 -52 6 -46 5 -57 -8 -62 -9 -3 -16 -17 -16 -31 0 -13 -5 -33 -10 -43
-6 -11 -13 -41 -15 -67 -5 -50 -27 -139 -51 -208 -8 -23 -14 -49 -14 -59 0
-20 -24 -48 -34 -39 -3 4 -6 -3 -6 -15 0 -12 -8 -23 -21 -27 -17 -6 -19 -9 -8
-16 12 -7 11 -9 -1 -9 -8 0 -21 -9 -28 -20 -7 -11 -19 -20 -27 -20 -8 0 -15
-4 -15 -10 0 -5 -7 -10 -15 -10 -9 0 -18 -6 -21 -14 -3 -7 -24 -17 -47 -20
-23 -4 -44 -12 -48 -17 -6 -10 -25 -13 -117 -17 -18 -1 -31 -5 -28 -10 2 -4
-13 -6 -35 -4 -24 3 -39 0 -39 -7 0 -6 -3 -10 -7 -10 -5 1 -10 1 -13 0 -3 -1
-39 -4 -80 -7 -295 -17 -278 -15 -284 -38 -3 -11 -6 -47 -6 -78 l0 -58 886 0
c784 0 885 2 880 15 -7 19 5 19 30 0 15 -11 53 -14 167 -15 133 0 147 2 147
18 1 16 1 16 11 0 8 -14 24 -18 77 -18 41 0 73 5 81 13 11 10 13 10 7 0 -6
-10 48 -13 252 -13 217 0 261 2 265 14 4 10 -3 16 -21 20 -15 2 7 3 48 1 75
-4 76 -4 88 25 15 33 81 69 133 72 31 1 30 2 -11 8 -39 6 -35 7 35 8 68 2 82
5 93 22 12 19 10 20 -59 20 -61 0 -77 -4 -104 -24 -26 -20 -37 -23 -66 -16
l-34 8 40 1 c36 1 85 24 74 35 -2 2 -79 11 -171 20 -146 13 -171 14 -200 1
-18 -8 -31 -15 -28 -15 3 -1 24 -4 48 -6 110 -13 234 -32 210 -33 -14 0 -86 6
-158 14 -107 13 -143 21 -189 45 -31 16 -52 29 -48 30 4 0 29 -11 55 -24 43
-21 50 -22 82 -10 19 8 43 17 53 20 15 5 16 9 5 15 -19 12 -30 11 -22 -3 5 -7
2 -9 -7 -6 -8 3 -54 20 -104 39 -49 18 -93 39 -98 45 -4 7 -30 40 -58 74 -28
33 -49 63 -46 66 3 3 15 -10 28 -28 42 -60 93 -113 116 -120 13 -3 23 -4 23
-2 0 2 -20 30 -44 61 -25 31 -43 60 -41 63 3 4 -8 5 -23 3 l-27 -4 24 14 c13
8 19 16 13 18 -6 2 -13 13 -15 24 -2 11 -10 34 -16 50 -7 17 -14 46 -15 65 -2
19 -7 53 -11 75 -8 36 -9 38 -15 15 -5 -20 -9 -11 -19 40 -16 85 -21 100 -31
100 -5 0 -11 -12 -13 -27 -3 -22 -4 -20 -6 10 0 21 4 58 10 82 6 24 9 50 7 57
-3 7 -11 -13 -19 -45 -8 -32 -18 -58 -23 -57 -11 2 -26 -20 -26 -37 0 -19 18
-15 23 5 3 12 5 13 6 2 1 -24 -16 -43 -33 -37 -21 8 -20 36 1 66 18 26 6 23
-31 -8 -16 -13 -18 -13 -11 -1 5 8 19 23 32 33 13 10 23 28 23 40 0 16 3 18 9
9 6 -10 13 -1 25 28 20 51 13 68 -8 19z m-105 -93 c-12 -13 -22 -32 -21 -42 5
-45 -3 -66 -9 -24 -5 39 -3 48 19 67 33 30 39 29 11 -1z m-86 -106 c-4 -17 -9
-29 -12 -26 -3 2 -2 19 2 36 4 17 9 29 12 26 3 -2 2 -19 -2 -36z m112 -20 c-6
-11 -16 -20 -21 -20 -6 0 -5 5 2 12 7 7 12 26 13 43 0 28 1 29 9 7 7 -15 6
-29 -3 -42z m30 -2 c-3 -8 -6 -5 -6 6 -1 11 2 17 5 13 3 -3 4 -12 1 -19z m51
-119 c14 0 14 -2 2 -6 -8 -3 -17 -9 -20 -13 -3 -3 -16 0 -30 7 -25 12 -25 13
-2 13 21 0 22 5 24 73 l2 72 3 -72 c3 -60 7 -73 21 -74z m42 11 c5 0 7 -6 4
-13 -2 -7 5 -41 16 -76 30 -95 23 -98 -10 -4 -17 50 -29 106 -30 145 -3 86 3
99 7 16 2 -38 8 -68 13 -68z m-297 101 c-4 -16 -8 -17 -18 -8 -9 9 -10 14 -1
19 19 13 24 9 19 -11z m130 -15 c7 3 4 -1 -5 -9 -10 -8 -18 -23 -19 -33 0 -14
-2 -15 -6 -4 -3 8 -11 18 -17 22 -7 5 -4 8 7 8 12 0 17 9 18 28 2 23 2 24 6 4
3 -13 9 -20 16 -16z m-123 -20 c0 -2 -8 -10 -17 -17 -16 -13 -17 -12 -4 4 13
16 21 21 21 13z m47 -17 c-14 -8 -22 -8 -30 0 -8 8 -3 11 19 11 25 -1 27 -2
11 -11z m126 -36 c-4 -22 -11 -33 -22 -32 -10 0 -11 2 -3 6 6 2 12 21 12 41 0
21 4 32 9 27 5 -6 7 -25 4 -42z m-86 -15 c-3 -8 -6 -5 -6 6 -1 11 2 17 5 13 3
-3 4 -12 1 -19z m262 -20 c1 -5 -7 0 -17 10 -12 11 -14 19 -8 24 10 6 23 -13
25 -34z m-370 -30 c-5 -10 -12 -18 -14 -18 -3 0 -5 8 -5 18 0 10 7 19 14 19
11 0 13 -5 5 -19z m101 6 c0 -8 -5 -12 -10 -9 -6 4 -8 11 -5 16 9 14 15 11 15
-7z m113 -155 c17 -1 18 -2 5 -6 -10 -2 -18 -14 -19 -26 0 -21 -1 -21 -9 -2
-5 11 -8 56 -7 100 l1 80 3 -72 c4 -67 6 -73 26 -74z m-323 117 c0 -3 -4 -8
-10 -11 -5 -3 -10 -1 -10 4 0 6 5 11 10 11 6 0 10 -2 10 -4z m197 -53 c-3 -10
-5 -2 -5 17 0 19 2 27 5 18 2 -10 2 -26 0 -35z m190 -35 c-3 -8 -6 -5 -6 6 -1
11 2 17 5 13 3 -3 4 -12 1 -19z m-314 -18 c-3 -12 -8 -19 -11 -16 -5 6 5 36
12 36 2 0 2 -9 -1 -20z m371 -75 c39 -62 52 -75 74 -76 15 0 21 -3 14 -6 -6
-2 -10 -9 -6 -14 3 -5 -5 -5 -19 0 -14 6 -28 7 -33 3 -4 -4 -4 -1 0 6 5 8 -12
41 -44 88 -28 40 -47 74 -42 74 5 0 30 -34 56 -75z m-250 34 c-3 -5 -10 -7
-15 -3 -5 3 -7 10 -3 15 3 5 10 7 15 3 5 -3 7 -10 3 -15z m63 15 c-3 -3 -12
-4 -19 -1 -8 3 -5 6 6 6 11 1 17 -2 13 -5z m-194 -34 c-3 -11 -7 -20 -9 -20
-2 0 -4 9 -4 20 0 11 4 20 9 20 5 0 7 -9 4 -20z m401 -254 l41 -38 -40 30
c-22 17 -58 47 -80 66 -22 20 -44 36 -48 36 -5 0 -6 4 -3 9 5 8 43 -21 130
-103z m-287 82 c-3 -8 -6 -5 -6 6 -1 11 2 17 5 13 3 -3 4 -12 1 -19z m-137
-23 c0 -9 -6 -12 -16 -8 -13 5 -13 7 -2 14 17 11 18 11 18 -6z m195 5 c-27
-12 -43 -12 -25 0 8 5 22 9 30 9 10 0 8 -3 -5 -9z m-50 -10 c-3 -5 -18 -10
-33 -9 l-27 1 25 8 c35 11 42 11 35 0z m505 -15 c0 -2 -10 -9 -22 -15 -22 -11
-22 -10 -4 4 21 17 26 19 26 11z m-115 -95 c27 -7 27 -8 5 -8 -14 0 -36 4 -50
8 -20 6 -21 8 -5 8 11 0 34 -4 50 -8z m-346 -45 c0 -5 -4 -3 -9 5 -5 8 -9 22
-9 30 0 16 17 -16 18 -35z m424 28 c-7 -2 -19 -2 -25 0 -7 3 -2 5 12 5 14 0
19 -2 13 -5z m70 -10 c-7 -2 -19 -2 -25 0 -7 3 -2 5 12 5 14 0 19 -2 13 -5z
m80 -10 c-7 -2 -21 -2 -30 0 -10 3 -4 5 12 5 17 0 24 -2 18 -5z m50 -10 c-7
-2 -19 -2 -25 0 -7 3 -2 5 12 5 14 0 19 -2 13 -5z"/>
<path d="M2307 880 c3 -30 7 -57 9 -59 7 -8 2 64 -6 89 -6 16 -7 6 -3 -30z"/>
<path d="M2241 874 c0 -11 3 -14 6 -6 3 7 2 16 -1 19 -3 4 -6 -2 -5 -13z"/>
<path d="M2280 866 c0 -9 5 -16 10 -16 6 0 10 4 10 9 0 6 -4 13 -10 16 -5 3
-10 -1 -10 -9z"/>
<path d="M2322 790 c0 -14 2 -19 5 -12 2 6 2 18 0 25 -3 6 -5 1 -5 -13z"/>
<path d="M2331 744 c0 -11 3 -14 6 -6 3 7 2 16 -1 19 -3 4 -6 -2 -5 -13z"/>
<path d="M1800 715 c0 -8 5 -15 11 -15 5 0 8 4 5 9 -4 5 0 12 6 14 8 3 6 6 -4
6 -10 1 -18 -6 -18 -14z"/>
<path d="M2520 326 c0 -2 8 -10 18 -17 15 -13 16 -12 3 4 -13 16 -21 21 -21
13z"/>
<path d="M2815 22 c-3 -3 -5 -9 -5 -14 0 -11 57 -10 64 1 6 9 -50 21 -59 13z"/>
<path d="M2973 8 c-2 -5 31 -7 74 -7 82 2 75 6 -15 11 -30 2 -56 0 -59 -4z"/>
</g>
</svg>
